<?xml version="1.0" standalone="no"?>
<!DOCTYPE svg PUBLIC "-//W3C//DTD SVG 20010904//EN"
 "http://www.w3.org/TR/2001/REC-SVG-20010904/DTD/svg10.dtd">
<svg version="1.0" xmlns="http://www.w3.org/2000/svg"
 width="214.000000pt" height="235.000000pt" viewBox="0 0 214.000000 235.000000"
 preserveAspectRatio="xMidYMid meet">

<g transform="translate(0.000000,235.000000) scale(0.100000,-0.100000)"
fill="#000000" stroke="none">
<path d="M1323 1574 l-73 -45 0 -470 c0 -462 0 -469 20 -469 19 0 20 7 20 145
0 80 2 145 4 145 1 0 105 -63 230 -140 125 -77 229 -140 232 -140 2 0 4 12 4
28 -1 24 -20 39 -205 152 -113 68 -205 127 -205 130 1 3 93 61 205 129 193
117 205 126 205 154 0 28 -1 29 -22 15 -83 -53 -438 -268 -442 -268 -3 0 -6
125 -6 278 l0 277 60 37 c48 30 60 42 60 63 0 14 -3 25 -7 24 -5 0 -41 -21
-80 -45z"/>
<path d="M693 1401 l-253 -156 0 -322 0 -323 255 0 255 0 0 160 0 160 -140 0
c-133 0 -140 -1 -140 -20 0 -19 7 -20 115 -20 l115 0 0 -115 0 -115 -205 0
-205 0 0 284 0 284 103 63 c225 139 292 179 300 179 4 0 7 -63 7 -140 l0 -140
25 0 25 0 0 190 c0 105 -1 190 -2 189 -2 -1 -117 -72 -255 -158z"/>
<path d="M491 526 c-34 -19 -50 -54 -51 -107 0 -80 51 -119 134 -103 34 6 36
8 36 45 0 22 -4 39 -10 39 -5 0 -10 -11 -10 -25 0 -31 -31 -48 -72 -40 -61 14
-74 123 -20 166 26 20 55 21 95 4 12 -5 17 -3 17 8 0 27 -78 36 -119 13z"/>
<path d="M700 527 c-37 -18 -51 -54 -47 -115 5 -71 30 -97 93 -97 63 0 94 35
94 105 0 27 -5 60 -11 73 -20 43 -80 59 -129 34z m96 -28 c13 -15 18 -36 18
-76 0 -46 -4 -59 -23 -74 -30 -25 -66 -24 -91 1 -15 15 -20 33 -20 75 0 42 5
60 20 75 26 26 72 26 96 -1z"/>
<path d="M890 425 c0 -89 3 -116 13 -113 6 3 13 23 15 46 4 58 31 57 66 -3 15
-25 30 -45 35 -45 20 0 17 15 -9 51 l-28 40 25 25 c20 20 24 31 19 57 -9 44
-18 50 -81 55 l-55 4 0 -117z m91 85 c22 -12 26 -59 7 -78 -7 -7 -25 -12 -40
-12 -27 0 -28 2 -28 50 0 44 3 50 21 50 11 0 29 -5 40 -10z"/>
<path d="M1070 530 c0 -5 27 -10 61 -12 l60 -3 -65 -94 c-36 -52 -63 -98 -60
-103 3 -4 39 -8 80 -8 61 0 74 3 74 16 0 14 -9 15 -60 9 -33 -4 -60 -4 -60 0
0 4 27 46 60 93 33 48 60 93 60 100 0 8 -22 12 -75 12 -41 0 -75 -4 -75 -10z"/>
<path d="M1250 535 c0 -3 16 -37 35 -75 23 -45 35 -84 35 -110 0 -22 5 -40 10
-40 6 0 10 19 10 43 0 30 12 63 40 115 24 43 34 72 27 72 -7 0 -26 -25 -42
-55 -17 -30 -32 -55 -35 -55 -3 0 -18 25 -33 55 -15 30 -31 55 -37 55 -5 0
-10 -2 -10 -5z"/>
<path d="M1459 511 c-25 -26 -29 -37 -29 -86 0 -49 4 -60 29 -86 16 -16 40
-29 53 -29 38 0 68 12 68 26 0 10 -6 11 -28 3 -45 -15 -79 3 -93 49 -24 81 26
150 92 125 23 -9 29 -8 29 2 0 16 -22 25 -62 25 -19 0 -39 -10 -59 -29z"/>
<path d="M1630 425 l0 -115 60 0 c47 0 60 3 60 15 0 11 -12 15 -50 15 l-50 0
0 40 0 40 45 0 c25 0 45 5 45 10 0 6 -21 10 -46 10 l-45 0 3 38 c3 37 3 37 51
40 68 4 58 22 -13 22 l-60 0 0 -115z"/>
</g>
</svg>
